<svg width="1200" height="800" viewBox="0 0 1200 800" fill="none" xmlns="http://www.w3.org/2000/svg">
  <rect width="1200" height="800" fill="#1A1A2E"/>
  <rect x="100" y="400" width="200" height="300" fill="#2D2D44"/>
  <rect x="350" y="300" width="250" height="400" fill="#2D2D44"/>
  <rect x="650" y="350" width="200" height="350" fill="#2D2D44"/>
  <rect x="900" y="450" width="200" height="250" fill="#2D2D44"/>
  <rect x="140" y="450" width="40" height="60" fill="#C9A227" opacity="0.7"/>
  <rect x="200" y="450" width="40" height="60" fill="#C9A227" opacity="0.7"/>
  <rect x="400" y="380" width="50" height="70" fill="#C9A227" opacity="0.7"/>
  <rect x="500" y="380" width="50" height="70" fill="#C9A227" opacity="0.7"/>
  <rect x="700" y="430" width="40" height="60" fill="#C9A227" opacity="0.7"/>
  <rect x="780" y="430" width="40" height="60" fill="#C9A227" opacity="0.7"/>
  <polygon points="475,300 475,200 490,150 505,200 505,300" fill="#3D3D54"/>
  <rect x="0" y="700" width="1200" height="100" fill="#252538"/>
  <text x="600" y="760" font-family="Arial, sans-serif" font-size="24" fill="#C9A227" text-anchor="middle">S.N.A AL-ATTAL ENGINEERING</text>
</svg>